<svg id="_レイヤー_2" data-name="レイヤー 2" xmlns="http://www.w3.org/2000/svg" viewBox="0 0 1410 570"><defs><style>.cls-2{letter-spacing:-.01em}.cls-3,.cls-4,.cls-5,.cls-6{fill:none}.cls-10,.cls-11,.cls-3,.cls-4,.cls-6,.cls-8,.cls-9{stroke:#000}.cls-10,.cls-3,.cls-8,.cls-9{stroke-width:1.5px}.cls-3,.cls-6{stroke-miterlimit:10}.cls-12,.cls-14,.cls-17,.cls-18,.cls-19{isolation:isolate}.cls-12,.cls-14,.cls-17,.cls-19{font-family:KozGoPr6N-Regular-83pv-RKSJ-H,&apos;Kozuka Gothic Pr6N&apos;}.cls-12{font-size:16px}.cls-10,.cls-11,.cls-4,.cls-8,.cls-9{stroke-linejoin:bevel}.cls-34,.cls-38,.cls-39,.cls-5{stroke-width:0}.cls-40{letter-spacing:-.02em}.cls-8{fill:#cbf4ff}.cls-9{fill:#ffffdf}.cls-10{fill:#efdeff}.cls-14{font-size:21px}.cls-19{font-size:14px}.cls-65{letter-spacing:-.05em}.cls-17{font-size:18px}.cls-84{letter-spacing:-.27em}.cls-11{fill:#f9f2ff}.cls-34{fill:#dce3ea}.cls-38{fill:#f0e6e4}.cls-39{fill:#f5f7f8}</style></defs><g id="_レイヤー_1-2" data-name="レイヤー 1"><path class="cls-39" d="M213.5 1.5h932v478h-932z"/><path class="cls-34" d="M1145 2v477H214V2h931m1-1H213v479h933V1Z"/><path class="cls-11" d="M318.76 283.03h182.91c16.12 0 29.19 42.14 29.19 94.11 0 51.98-13.07 94.11-29.19 94.11H318.76c-16.12 0-29.19-42.14-29.19-94.11s13.07-94.11 29.19-94.11Z"/><path class="cls-8" d="M278.57 216.77h211.29v37.5H278.57z"/><path class="cls-39" d="M1176.5.5h233v478h-233z"/><path class="cls-34" d="M1409 1v477h-232V1h232m1-1h-234v479h234V0Z"/><path class="cls-39" d="M213.5 497.5h1196v72h-1196z"/><path class="cls-34" d="M1409 498v71H214v-71h1195m1-1H213v73h1197v-73Z"/><path class="cls-5" d="M230.81 15.67h329.76V49H230.81z"/><text class="cls-14" transform="translate(230.81 34.15)"><tspan x="0" y="0">PostgreSQLインスタンス</tspan></text><path class="cls-5" d="M230.38 507.1h294.05v27.38H230.38z"/><text class="cls-14" transform="translate(230.38 525.58)"><tspan x="0" y="0">OS</tspan></text><path class="cls-5" d="M1185 9.71h225V39h-225z"/><text class="cls-14" transform="translate(1183.95 28.19)"><tspan x="0" y="0" style="letter-spacing:-.15em">ファイル</tspan></text><path style="fill:#ece8ec;stroke-width:0" d="M2.5 1.5h194v72H2.5z"/><path d="M196 2v71H3V2h193m1-1H2v73h195V1Z" style="fill:#b19dab;stroke-width:0"/><path d="M197 560c0 5.5-4.5 10-10 10H10c-5.5 0-10-4.5-10-10V300c0-5.5 4.5-10 10-10h177c5.5 0 10 4.5 10 10v260Z" style="fill:#fff;stroke-width:0"/><path d="M187 290h-12v1h12v-1Zm-24 0h-12v1h12v-1Zm-24 0h-12v1h12v-1Zm-24 0h-12v1h12v-1Zm-24 0H79v1h12v-1Zm-24 0H55v1h12v-1Zm-24 0H31v1h12v-1Zm-24 0H9.2c-.67.07-1.31.2-1.94.4l.3.95c.86-.27 1.75-.4 2.66-.4h9V290H19ZM.02 299.3v.08c-.01.11-.01.21-.01.31v11.57h1V300c0-.21.01-.42.02-.63l-1.01-.07Zm.98 24H0v12h1v-12Zm0 24H0v12h1v-12Zm0 24H0v12h1v-12Zm0 24H0v12h1v-12Zm0 24H0v12h1v-12Zm0 24H0v12h1v-12Zm0 24H0v12h1v-12Zm0 24H0v12h1v-12Zm0 24H0v12h1v-12Zm0 24H0v12h1v-12Zm.49 23.61-.95.33s0 .01.01.02.01.03.02.04.01.03.01.04.01.04.02.05.01.03.01.04.01.03.01.04v.02s0 .01.01.01v.02s.01.02.01.03v.02s0 .01.01.01v.02s0 .01.01.01v.02s0 .01.01.01V563.92s0 .01.01.01V564.05s0 .01.01.01v.02s.01.02.01.03v.02s0 .01.01.01v.02s.01.02.01.03.01.03.01.04v.02s.01.01.01.02v.02s.01.02.01.03.01.03.01.04.01.04.02.05.01.03.02.04.03.06.04.09.02.03.03.05c1.62 3.08 4.79 5.23 8.46 5.38l.04-1c-3.4-.12-6.68-2.57-7.88-6.06ZM33.6 569h-12v1h12v-1Zm24 0h-12v1h12v-1Zm24 0h-12v1h12v-1Zm24 0h-12v1h12v-1Zm24 0h-12v1h12v-1Zm24 0h-12v1h12v-1Zm24 0h-12v1h12v-1Zm18.35-8.01c-.4 3.66-3.07 6.75-6.63 7.71l.26.97c.58-.16 1.14-.36 1.68-.62s.03-.01.04-.02.03-.01.04-.02.03-.01.04-.02.02-.01.03-.02.02-.01.03-.02.03-.01.04-.02.02-.01.03-.01h.02s0-.01.02-.01h.02s0-.01.02-.01h.05v-.01h.05v-.01h.05v-.01h.05v-.01h.04v-.01h.02v-.01h.02v-.09l.02-.01v-.08s.02-.01.02-.02v-.01s.02-.02.04-.02.03-.02.05-.03.02-.02.04-.02.02-.02.04-.02.03-.02.05-.03.03-.02.04-.02.02-.02.04-.02.03-.02.05-.03c2.37-1.61 4.03-4.21 4.36-7.19l-.97-.26ZM197 537.1h-1v12h1v-12Zm0-24h-1v12h1v-12Zm0-24h-1v12h1v-12Zm0-24h-1v12h1v-12Zm0-24h-1v12h1v-12Zm0-24h-1v12h1v-12Zm0-24h-1v12h1v-12Zm0-24h-1v12h1v-12Zm0-24h-1v12h1v-12Zm0-24h-1v12h1v-12Zm-.42-23.96-.96.29c.25.83.38 1.7.38 2.57v9.1h1V298.73c-.15-.61-.25-1.11-.4-1.59ZM187 290v1c.24 0 .48.01.72.03l.08-1s-.07-.01-.1-.01h-.05c-.17-.01-.34-.02-.51-.02H187Z" style="stroke-width:0"/><path class="cls-5" d="M13.95 16.1H184V41H13.95z"/><text class="cls-14" transform="translate(13.11 34.58)"><tspan x="0" y="0" style="letter-spacing:-.09em">アプリケーション</tspan></text><path class="cls-5" d="M13.98 305.61h170.05v24.9H13.98z"/><text class="cls-14" transform="translate(13.98 324.09)"><tspan x="0" y="0">凡例</tspan></text><path class="cls-38" d="M181 536.5c0 5.5-4.5 10-10 10H36c-5.5 0-10-4.5-10-10V519c0-5.5 4.5-10 10-10h135c5.5 0 10 4.5 10 10v17.5Z"/><path class="cls-3" d="M181 536.5c0 5.5-4.5 10-10 10H36c-5.5 0-10-4.5-10-10V519c0-5.5 4.5-10 10-10h135c5.5 0 10 4.5 10 10v17.5Z"/><path class="cls-8" d="M25.45 340.11h155v37.5h-155z"/><path class="cls-10" d="M43.8 395.11h117.5c10.36 0 18.75 8.39 18.75 18.75s-8.39 18.75-18.75 18.75H43.8c-10.36 0-18.75-8.39-18.75-18.75s8.39-18.75 18.75-18.75Z"/><path class="cls-9" d="m40.45 451.5 139.55-.39-16.55 37.39-138.45.11 15.45-37.11z"/><path class="cls-5" d="M64.57 348.61H142v24.9H64.57z"/><text class="cls-17" transform="translate(63.67 364.45)"><tspan class="cls-40" x="0" y="0">プロセス</tspan></text><path class="cls-5" d="M74.28 404.5H133v24.9H74.28z"/><text class="cls-17" transform="translate(73.56 420.35)"><tspan x="0" y="0" style="letter-spacing:-.05em">メモ</tspan></text><text class="cls-17" transform="translate(63.38 476.35)"><tspan x="0" y="0" style="letter-spacing:-.15em">ファイル</tspan></text><path class="cls-5" d="M73.95 518.22h77.43v24.9H73.95z"/><text class="cls-17" transform="translate(73.59 534.06)"><tspan class="cls-40" x="0" y="0">その他</tspan></text><path class="cls-8" d="M268.71 207.77H480v37.5H268.71zM239.57 61.77h211.29v37.5H239.57z"/><path class="cls-5" d="M278.95 217.17H429v24.9H278.95z"/><text class="cls-17" transform="translate(278.95 233.01)"><tspan x="0" y="0" style="letter-spacing:0">サーバープロセス</tspan></text><path class="cls-5" d="M249.95 71.17H400v24.9H249.95z"/><text class="cls-17" transform="translate(249.95 87.01)"><tspan x="0" y="0" style="letter-spacing:-.06em">マスタープロセス</tspan></text><path class="cls-11" d="M305.9 274.77h182.91c16.12 0 29.19 42.14 29.19 94.11 0 51.98-13.07 94.11-29.19 94.11H305.9c-16.12 0-29.19-42.14-29.19-94.11s13.07-94.11 29.19-94.11Z"/><path class="cls-10" d="M318.97 323.77h145.77c12.85 0 23.26 8.39 23.26 18.75s-10.41 18.75-23.26 18.75H318.97c-12.85 0-23.26-8.39-23.26-18.75 0-10.35 10.42-18.75 23.26-18.75ZM318.85 407.77h145.87c12.86 0 23.28 8.39 23.28 18.75s-10.42 18.75-23.28 18.75H318.85c-12.86 0-23.28-8.39-23.28-18.75 0-10.35 10.42-18.75 23.28-18.75ZM319.35 365.77h145.44c12.82 0 23.21 8.39 23.21 18.75s-10.39 18.75-23.21 18.75H319.35c-12.82 0-23.21-8.39-23.21-18.75 0-10.35 10.39-18.75 23.21-18.75Z"/><path class="cls-5" d="M310.95 334.17H414v24.9H310.95z"/><text class="cls-19" transform="translate(310.95 346.49)"><tspan x="0" y="0">work_mem</tspan></text><path class="cls-5" d="M310.13 377H534v24.08H310.13z"/><text class="cls-19" transform="translate(310.13 389.32)"><tspan x="0" y="0">maintenance_work_mem</tspan></text><path class="cls-5" d="M310.13 419.17h103.05v24.9H310.13z"/><text class="cls-19" transform="translate(310.13 431.49)"><tspan x="0" y="0">temp_buffers</tspan></text><path class="cls-5" d="M309.95 287.17H460v24.9H309.95z"/><text class="cls-17" transform="translate(309.05 303.01)"><tspan class="cls-40" x="0" y="0">プロセスメモリ</tspan><tspan class="cls-2" x="118.44" y="0">ー</tspan></text><path class="cls-11" d="M600.76 140.91h182.91c16.12 0 29.19 50.61 29.19 113.04 0 62.43-13.07 113.04-29.19 113.04H600.76c-16.12 0-29.19-50.61-29.19-113.04 0-62.43 13.07-113.04 29.19-113.04Z"/><path class="cls-10" d="M619.33 188.77H765.1c12.85 0 23.26 8.39 23.26 18.75s-10.41 18.75-23.26 18.75H619.33c-12.85 0-23.26-8.39-23.26-18.75 0-10.35 10.42-18.75 23.26-18.75ZM619.33 230.77H765.1c12.85 0 23.26 8.39 23.26 18.75s-10.41 18.75-23.26 18.75H619.33c-12.85 0-23.26-8.39-23.26-18.75 0-10.35 10.42-18.75 23.26-18.75ZM619.28 272.77h145.87c12.86 0 23.28 8.39 23.28 18.75s-10.42 18.75-23.28 18.75H619.28c-12.86 0-23.28-8.39-23.28-18.75 0-10.35 10.42-18.75 23.28-18.75ZM619.28 314.77h145.87c12.86 0 23.28 8.39 23.28 18.75s-10.42 18.75-23.28 18.75H619.28c-12.86 0-23.28-8.39-23.28-18.75 0-10.35 10.42-18.75 23.28-18.75Z"/><path class="cls-5" d="M608.19 200.03H773v24.9H608.19z"/><text class="cls-19" transform="translate(608.19 212.35)"><tspan x="0" y="0">shared_buffers</tspan></text><path class="cls-5" d="M608.19 242.03h103.05v24.9H608.19z"/><text class="cls-19" transform="translate(608.19 254.35)"><tspan x="0" y="0">wal_buffers</tspan></text><path class="cls-5" d="M608.19 284.03h103.05v24.9H608.19z"/><text class="cls-19" transform="translate(608.19 296.35)"><tspan x="0" y="0">Free Scan Map</tspan></text><path class="cls-5" d="M609.19 328.03h103.05v24.9H609.19z"/><text class="cls-19" transform="translate(609.19 340.35)"><tspan x="0" y="0">Visibility Map</tspan></text><path class="cls-5" d="M606.95 151.17H757v24.9H606.95z"/><text class="cls-17" transform="translate(606.95 167.01)"><tspan x="0" y="0">共有メモリ</tspan></text><path class="cls-9" d="m1216.31 55.94 176.69-.83-20.95 79.66-175.31.23 19.57-79.06zM1216.31 156.5l176.69-.39-20.95 37.39-175.31.11 19.57-37.11z"/><path class="cls-8" d="M269.57 137.72h211.29v37.5H269.57z"/><path class="cls-5" d="M279.95 147.12H430v24.9H279.95z"/><text class="cls-17" transform="translate(278.33 162.96)"><tspan x="0" y="0" style="letter-spacing:-.13em">リスナープロセス</tspan></text><path class="cls-8" d="M881.57 61.77h211.29v37.5H881.57zM881.57 120.77h211.29v37.5H881.57zM881.57 422.77h211.29v37.5H881.57zM881.57 181.77h211.29v37.5H881.57zM881.57 242.77h211.29v37.5H881.57zM881.57 302.77h211.29v37.5H881.57zM881.57 363.77h211.29v37.5H881.57z"/><path class="cls-5" d="M889.95 72.17H1119v24.9H889.95z"/><text class="cls-12" transform="translate(889.95 86.25)"><tspan class="cls-65" x="0" y="0">バックグラウンドライター</tspan></text><path class="cls-5" d="M889.95 131.17H1040v24.9H889.95z"/><text class="cls-12" transform="translate(889.95 145.25)"><tspan x="0" y="0">統計情報ライター</tspan></text><path class="cls-5" d="M889.95 192.17H1040v24.9H889.95z"/><g class="cls-18"><text class="cls-12" transform="translate(889.95 206.25)"><tspan class="cls-2" x="0" y="0">WALライター</tspan></text></g><path class="cls-5" d="M889.95 253.17H1040v24.9H889.95z"/><g class="cls-18"><text class="cls-12" transform="translate(889.95 267.25)"><tspan class="cls-2" x="0" y="0">WALアーカイバー</tspan></text></g><path class="cls-5" d="M890.95 313.17H1041v24.9H890.95z"/><text class="cls-12" transform="translate(890.79 327.25)"><tspan x="0" y="0" style="letter-spacing:-.13em">チェックポインター</tspan></text><path class="cls-5" d="M890.95 375.17H1078v24.9H890.95z"/><g class="cls-18"><text class="cls-12" transform="translate(890.63 389.03)"><tspan x="0" y="0" style="letter-spacing:-.05em">ロガー(サーバログ)</tspan></text></g><path class="cls-5" d="M891.95 434.17H1108v24.9H891.95z"/><text class="cls-12" transform="translate(891.47 448.25)"><tspan x="0" y="0" style="letter-spacing:-.03em">自動バキュームランチャー</tspan></text><path class="cls-5" d="M1217.19 65.1H1332V141h-114.81z"/><g class="cls-18"><text class="cls-19" transform="translate(1216.91 77.44)"><tspan class="cls-2" x="0" y="0">データファイル</tspan></text><text class="cls-19" transform="translate(1210.19 101.94)"><tspan class="cls-84" x="0" y="0">・テーブル</tspan></text><text class="cls-19" transform="translate(1210.19 126.44)"><tspan class="cls-84" x="0" y="0">・インデックス</tspan></text></g><path class="cls-5" d="M1217.31 169.03h164.81v24.9h-164.81z"/><g class="cls-18"><text class="cls-19" transform="translate(1217.31 181.35)"><tspan x="0" y="0" style="letter-spacing:0">WALファイル</tspan></text></g><path class="cls-9" d="m1215.8 215.5 176.69-.39-20.95 37.39-175.3.11 19.56-37.11z"/><path class="cls-5" d="M1216.83 228.03h164.81v24.9h-164.81z"/><text class="cls-19" transform="translate(1216.27 240.35)"><tspan x="0" y="0" style="letter-spacing:-.06em">アーカイブログファイル</tspan></text><path class="cls-9" d="m1215.8 274.5 176.69-.39-20.95 37.39-175.3.11 19.56-37.11z"/><path class="cls-5" d="M1216.83 287.03h164.81v24.9h-164.81z"/><text class="cls-19" transform="translate(1216.83 299.35)"><tspan class="cls-2" x="0" y="0">サーバーログファイル</tspan></text><path class="cls-9" d="m1215.8 333.5 176.69-.39-20.95 37.39-175.3.11 19.56-37.11z"/><path class="cls-5" d="M1216.83 346.03h164.81v24.9h-164.81z"/><text class="cls-19" transform="translate(1216.83 358.35)"><tspan x="0" y="0">設定ファイル</tspan></text><path class="cls-38" d="M534.5 544.89c0 5.5-4.5 10-10 10H316.71c-5.5 0-10-4.5-10-10v-17.5c0-5.5 4.5-10 10-10H524.5c5.5 0 10 4.5 10 10v17.5Z"/><path class="cls-3" d="M534.5 544.89c0 5.5-4.5 10-10 10H316.71c-5.5 0-10-4.5-10-10v-17.5c0-5.5 4.5-10 10-10H524.5c5.5 0 10 4.5 10 10v17.5Z"/><path class="cls-38" d="M785.11 544.89c0 5.5-4.5 10-10 10H567.32c-5.5 0-10-4.5-10-10v-17.5c0-5.5 4.5-10 10-10h207.79c5.5 0 10 4.5 10 10v17.5Z"/><path class="cls-3" d="M785.11 544.89c0 5.5-4.5 10-10 10H567.32c-5.5 0-10-4.5-10-10v-17.5c0-5.5 4.5-10 10-10h207.79c5.5 0 10 4.5 10 10v17.5Z"/><path class="cls-38" d="M1034.11 544.89c0 5.5-4.5 10-10 10H816.32c-5.5 0-10-4.5-10-10v-17.5c0-5.5 4.5-10 10-10h207.79c5.5 0 10 4.5 10 10v17.5Z"/><path class="cls-3" d="M1034.11 544.89c0 5.5-4.5 10-10 10H816.32c-5.5 0-10-4.5-10-10v-17.5c0-5.5 4.5-10 10-10h207.79c5.5 0 10 4.5 10 10v17.5Z"/><path class="cls-38" d="M1284.11 544.89c0 5.5-4.5 10-10 10h-207.79c-5.5 0-10-4.5-10-10v-17.5c0-5.5 4.5-10 10-10h207.79c5.5 0 10 4.5 10 10v17.5Z"/><path class="cls-3" d="M1284.11 544.89c0 5.5-4.5 10-10 10h-207.79c-5.5 0-10-4.5-10-10v-17.5c0-5.5 4.5-10 10-10h207.79c5.5 0 10 4.5 10 10v17.5Z"/><path class="cls-5" d="M322.69 528.72h150.05v24.9H322.69z"/><g class="cls-18"><text class="cls-12" transform="translate(322.69 542.8)"><tspan x="0" y="0">CPU</tspan></text></g><path class="cls-5" d="M573.69 528.72h150.05v24.9H573.69z"/><text class="cls-12" transform="translate(573.05 542.8)"><tspan class="cls-65" x="0" y="0">MEMORY</tspan></text><path class="cls-5" d="M819.69 528.72h150.05v24.9H819.69z"/><g class="cls-18"><text class="cls-12" transform="translate(819.69 542.8)"><tspan x="0" y="0">NETWORK</tspan></text></g><path class="cls-5" d="M1070.69 528.72h150.05v24.9h-150.05z"/><g class="cls-18"><text class="cls-12" transform="translate(1070.69 542.8)"><tspan x="0" y="0">DISK</tspan></text></g><path class="cls-6" d="M99 74v152.17h169.71"/><path class="cls-6" d="M99.5 156.11s2.16.08 6 .12"/><path d="M117.61 156.3c34.76.15 110 .17 139.34.17" style="stroke-dasharray:0 0 12.12 12.12;stroke-miterlimit:10;stroke:#000;fill:none"/><path class="cls-6" d="M263 156.47h6M450.86 80.52H881"/><path class="cls-4" d="M881.57 441.52H842v-361M880.76 383.17H842M881.57 321.17H842M881.57 261.17H842M881.57 200.17H842M881 139.17h-39"/></g></svg>