<?xml version="1.0" encoding="UTF-8"?>
<svg id="_レイヤー_2" data-name="レイヤー 2" xmlns="http://www.w3.org/2000/svg" viewBox="0 0 840.61 840.61">
  <defs>
    <style>
      .cls-1 {
        stroke: #073a66;
      }

      .cls-1, .cls-2 {
        stroke-width: 20px;
      }

      .cls-1, .cls-3 {
        fill: none;
      }

      .cls-2 {
        fill: #fff;
      }

      .cls-2, .cls-3, .cls-4 {
        stroke: #fff;
      }

      .cls-3 {
        stroke-width: 12px;
      }

      .cls-4 {
        stroke-width: 8px;
      }

      .cls-4, .cls-5 {
        fill: #073a66;
      }

      .cls-5 {
        stroke-width: 0px;
      }
    </style>
  </defs>
  <g id="_レイヤー_1-2" data-name="レイヤー 1">
    <circle class="cls-2" cx="420.3" cy="420.3" r="410.3"/>
    <path class="cls-4" d="m490.37,629.86c-.86,1.35-2,2.51-2.69,3.87-8.86,17.1-17.8,32.57-26.83,46.41-11.42,17.51-25.04,33.59-40.87,48.24-4.89,4.53-9.99,8.82-15.28,12.87-22.89,17.51-48,31-75.32,40.45-.2.06-.41-.05-.48-.25-.04-.12-.01-.25.07-.35,39.15-45.81,71.34-96.07,96.58-150.76,6.31-13.69,13.87-32.12,22.66-55.31,6.76-17.83,12.44-35.98,17.05-54.46,1.56-6.26,2.64-13.76,3.98-20.69,1.29-6.66.83-13.08.97-19.77.1-5.07-.08-9.86-.55-14.37-.33-3.18-.66-6.36-1-9.55-.35-3.2-.86-6.36-1.54-9.48-1.91-8.7-3.32-14.71-4.21-18.03-3.04-11.25-7.69-22.75-13.95-34.51-12.52-23.51-32.02-44.62-56.02-54.8-9.1-3.86-19.54-6.54-31.31-8.03-16.25-2.06-32.57-2.79-48.96-2.19-19.91.73-40.04.98-60.37.76-.81,0-1.07-.38-.77-1.13.29-.72.66-1.55,1.19-2.17,24.09-28.13,48.41-56.5,72.94-85.11.9-1.05.79-1.98-.33-2.79-.24-.17-.69-.36-1.35-.57-.43-.13-.91-.2-1.42-.19-12.2.05-24.4.09-36.6.1-.38,0-.66-.17-.85-.5-.63-1.14-.44-2.44.58-3.91,15.97-22.89,34.25-42.42,54.84-58.58,23.44-18.39,50.62-31.51,79.89-37.49,13.95-2.85,28.02-3.91,42.23-3.18,20.19,1.05,40.18,5.9,59.97,14.55,21.95,9.61,41.83,22.43,59.63,38.48.25.23.54.36.88.39,8.05.69,16.07,1.32,24.04,1.89,14.25,1.04,28.42,2.78,42.49,5.21,14.11,2.45,27.87,6.2,41.28,11.25,13.26,4.99,24.98,12.22,35.16,21.68,9.25,8.6,17.64,21.33,25.63,32.36.31.43.22,1.03-.21,1.34-.13.1-.28.16-.44.18-50.21,6.82-100.51,13.21-150.92,19.18-8.15.96-15.76,2.98-22.82,6.07-14.98,6.54-22.86,17.79-24.72,33.86-1.29,11.11,2.75,24.1,7.39,33.98,7.43,15.81,12.57,27.03,15.42,33.68,17.04,39.77,23.63,81.09,19.76,123.97-3.44,38.07-17.15,76.29-37.28,108.25-16.59,26.34-36.87,49.46-60.85,69.37-.56.47-1.09.78-1.58.95-.93.31-1.93-.19-2.24-1.11-.06-.18-.09-.37-.09-.56.01-18.93,0-37.95-.02-57.07,0-1.33-.73-2.21-2.2-2.64-.24-.07-.43,0-.56.21Z"/>
    <circle class="cls-1" cx="420.3" cy="420.3" r="410.3"/>
    <path class="cls-5" d="m459.79,453.06c-4.53-34.65-18.02-58.13-21.86-64.53-5.76-9.59-11.63-19.35-23.13-29.01-16.1-13.53-32.95-18.13-40.49-20.11-12.84-3.38-23.07-3.67-29.02-3.8-38.44-.85-77.13-.09-95.59.36-70.02,80.18-140.05,160.35-210.07,240.53,40.05,99,116.84,179.2,213.47,223.7,12-4.14,24.47-9.68,37.13-17.26,36.08-21.61,59.43-51.08,71.53-66.87,15.36-20.03,25.44-38.69,39.18-64,16.75-30.84,28.18-57.08,35.64-75.7,13.5-33.66,21.01-52.83,23.65-80.77,2.07-21.91.11-38.18-.46-42.55Z"/>
    <circle class="cls-3" cx="420.3" cy="420.3" r="396.46"/>
  </g>
</svg>